<?xml version="1.0" encoding="utf-8"?>
<svg xmlns="http://www.w3.org/2000/svg" xml:space="preserve" width="990" height="990" viewBox="0 0 990 990"><g><rect x="0" y="0" fill="#FFFFFF" width="990" height="990"/><g fill="#000000"><circle cx="231.000" cy="55.000" r="11"/><path d="M275.000,44.000 H286.000 V66.000 H264.000 V55.000 A11.000,11.000 0 0 1 275.000,44.000 Z"/><path d="M286.000,44.000 H297.000 A11.000,11.000 0 0 1 308.000,55.000 V55.000 A11.000,11.000 0 0 1 297.000,66.000 H286.000 V44.000 Z"/><circle cx="341.000" cy="55.000" r="11"/><circle cx="385.000" cy="55.000" r="11"/><path d="M429.000,44.000 H429.000 A11.000,11.000 0 0 1 440.000,55.000 V66.000 H418.000 V55.000 A11.000,11.000 0 0 1 429.000,44.000 Z"/><path d="M473.000,44.000 H484.000 V66.000 H462.000 V55.000 A11.000,11.000 0 0 1 473.000,44.000 Z"/><path d="M484.000,44.000 H495.000 A11.000,11.000 0 0 1 506.000,55.000 V66.000 H484.000 V44.000 Z"/><path d="M671.000,44.000 H682.000 V66.000 H671.000 A11.000,11.000 0 0 1 660.000,55.000 V55.000 A11.000,11.000 0 0 1 671.000,44.000 Z"/><path d="M682.000,44.000 H693.000 A11.000,11.000 0 0 1 704.000,55.000 V66.000 H682.000 V44.000 Z"/><path d="M737.000,44.000 H748.000 V66.000 H737.000 A11.000,11.000 0 0 1 726.000,55.000 V55.000 A11.000,11.000 0 0 1 737.000,44.000 Z"/><path d="M748.000,44.000 H759.000 A11.000,11.000 0 0 1 770.000,55.000 V55.000 A11.000,11.000 0 0 1 759.000,66.000 H748.000 V44.000 Z"/><path d="M253.000,66.000 H264.000 V88.000 H253.000 A11.000,11.000 0 0 1 242.000,77.000 V77.000 A11.000,11.000 0 0 1 253.000,66.000 Z"/><path d="M264.000,66.000 H286.000 V77.000 A11.000,11.000 0 0 1 275.000,88.000 H264.000 V66.000 Z"/><path d="M363.000,66.000 H363.000 A11.000,11.000 0 0 1 374.000,77.000 V88.000 H352.000 V77.000 A11.000,11.000 0 0 1 363.000,66.000 Z"/><path d="M407.000,66.000 H418.000 V88.000 H396.000 V77.000 A11.000,11.000 0 0 1 407.000,66.000 Z"/><path d="M418.000,66.000 H440.000 V77.000 A11.000,11.000 0 0 1 429.000,88.000 H418.000 V66.000 Z"/><path d="M462.000,66.000 H484.000 V88.000 H473.000 A11.000,11.000 0 0 1 462.000,77.000 V66.000 Z"/><rect x="484.000" y="66.000" width="22" height="22"/><path d="M539.000,66.000 H550.000 V88.000 H539.000 A11.000,11.000 0 0 1 528.000,77.000 V77.000 A11.000,11.000 0 0 1 539.000,66.000 Z"/><rect x="550.000" y="66.000" width="22" height="22"/><path d="M572.000,66.000 H583.000 A11.000,11.000 0 0 1 594.000,77.000 V77.000 A11.000,11.000 0 0 1 583.000,88.000 H572.000 V66.000 Z"/><path d="M649.000,66.000 H649.000 A11.000,11.000 0 0 1 660.000,77.000 V88.000 H638.000 V77.000 A11.000,11.000 0 0 1 649.000,66.000 Z"/><rect x="682.000" y="66.000" width="22" height="22"/><path d="M352.000,88.000 H374.000 V110.000 H363.000 A11.000,11.000 0 0 1 352.000,99.000 V88.000 Z"/><rect x="374.000" y="88.000" width="22" height="22"/><path d="M396.000,88.000 H418.000 V99.000 A11.000,11.000 0 0 1 407.000,110.000 H396.000 V88.000 Z"/><path d="M451.000,88.000 H451.000 A11.000,11.000 0 0 1 462.000,99.000 V110.000 H440.000 V99.000 A11.000,11.000 0 0 1 451.000,88.000 Z"/><rect x="484.000" y="88.000" width="22" height="22"/><path d="M627.000,88.000 H638.000 V110.000 H627.000 A11.000,11.000 0 0 1 616.000,99.000 V99.000 A11.000,11.000 0 0 1 627.000,88.000 Z"/><rect x="638.000" y="88.000" width="22" height="22"/><rect x="660.000" y="88.000" width="22" height="22"/><rect x="682.000" y="88.000" width="22" height="22"/><path d="M704.000,88.000 H715.000 A11.000,11.000 0 0 1 726.000,99.000 V99.000 A11.000,11.000 0 0 1 715.000,110.000 H704.000 V88.000 Z"/><path d="M275.000,110.000 H286.000 V132.000 H275.000 A11.000,11.000 0 0 1 264.000,121.000 V121.000 A11.000,11.000 0 0 1 275.000,110.000 Z"/><rect x="286.000" y="110.000" width="22" height="22"/><path d="M308.000,110.000 H319.000 A11.000,11.000 0 0 1 330.000,121.000 V132.000 H308.000 V110.000 Z"/><path d="M374.000,110.000 H396.000 V121.000 A11.000,11.000 0 0 1 385.000,132.000 H385.000 A11.000,11.000 0 0 1 374.000,121.000 V110.000 Z"/><path d="M440.000,110.000 H462.000 V132.000 H451.000 A11.000,11.000 0 0 1 440.000,121.000 V110.000 Z"/><rect x="462.000" y="110.000" width="22" height="22"/><rect x="484.000" y="110.000" width="22" height="22"/><path d="M506.000,110.000 H517.000 A11.000,11.000 0 0 1 528.000,121.000 V121.000 A11.000,11.000 0 0 1 517.000,132.000 H506.000 V110.000 Z"/><circle cx="561.000" cy="121.000" r="11"/><circle cx="759.000" cy="121.000" r="11"/><path d="M231.000,132.000 H242.000 V154.000 H220.000 V143.000 A11.000,11.000 0 0 1 231.000,132.000 Z"/><path d="M242.000,132.000 H253.000 A11.000,11.000 0 0 1 264.000,143.000 V143.000 A11.000,11.000 0 0 1 253.000,154.000 H242.000 V132.000 Z"/><path d="M286.000,132.000 H308.000 V154.000 H297.000 A11.000,11.000 0 0 1 286.000,143.000 V132.000 Z"/><path d="M308.000,132.000 H330.000 V143.000 A11.000,11.000 0 0 1 319.000,154.000 H308.000 V132.000 Z"/><path d="M407.000,132.000 H407.000 A11.000,11.000 0 0 1 418.000,143.000 V154.000 H396.000 V143.000 A11.000,11.000 0 0 1 407.000,132.000 Z"/><path d="M484.000,132.000 H506.000 V143.000 A11.000,11.000 0 0 1 495.000,154.000 H495.000 A11.000,11.000 0 0 1 484.000,143.000 V132.000 Z"/><path d="M583.000,132.000 H583.000 A11.000,11.000 0 0 1 594.000,143.000 V154.000 H572.000 V143.000 A11.000,11.000 0 0 1 583.000,132.000 Z"/><circle cx="627.000" cy="143.000" r="11"/><path d="M671.000,132.000 H671.000 A11.000,11.000 0 0 1 682.000,143.000 V154.000 H660.000 V143.000 A11.000,11.000 0 0 1 671.000,132.000 Z"/><path d="M715.000,132.000 H726.000 V154.000 H715.000 A11.000,11.000 0 0 1 704.000,143.000 V143.000 A11.000,11.000 0 0 1 715.000,132.000 Z"/><path d="M726.000,132.000 H737.000 A11.000,11.000 0 0 1 748.000,143.000 V143.000 A11.000,11.000 0 0 1 737.000,154.000 H726.000 V132.000 Z"/><rect x="220.000" y="154.000" width="22" height="22"/><path d="M363.000,154.000 H374.000 V176.000 H352.000 V165.000 A11.000,11.000 0 0 1 363.000,154.000 Z"/><rect x="374.000" y="154.000" width="22" height="22"/><rect x="396.000" y="154.000" width="22" height="22"/><circle cx="473.000" cy="165.000" r="11"/><circle cx="517.000" cy="165.000" r="11"/><path d="M561.000,154.000 H572.000 V176.000 H561.000 A11.000,11.000 0 0 1 550.000,165.000 V165.000 A11.000,11.000 0 0 1 561.000,154.000 Z"/><rect x="572.000" y="154.000" width="22" height="22"/><path d="M594.000,154.000 H605.000 A11.000,11.000 0 0 1 616.000,165.000 V165.000 A11.000,11.000 0 0 1 605.000,176.000 H594.000 V154.000 Z"/><path d="M649.000,154.000 H660.000 V176.000 H649.000 A11.000,11.000 0 0 1 638.000,165.000 V165.000 A11.000,11.000 0 0 1 649.000,154.000 Z"/><rect x="660.000" y="154.000" width="22" height="22"/><path d="M682.000,154.000 H693.000 A11.000,11.000 0 0 1 704.000,165.000 V165.000 A11.000,11.000 0 0 1 693.000,176.000 H682.000 V154.000 Z"/><path d="M220.000,176.000 H242.000 V187.000 A11.000,11.000 0 0 1 231.000,198.000 H231.000 A11.000,11.000 0 0 1 220.000,187.000 V176.000 Z"/><circle cx="275.000" cy="187.000" r="11"/><path d="M319.000,176.000 H319.000 A11.000,11.000 0 0 1 330.000,187.000 V198.000 H308.000 V187.000 A11.000,11.000 0 0 1 319.000,176.000 Z"/><rect x="352.000" y="176.000" width="22" height="22"/><rect x="396.000" y="176.000" width="22" height="22"/><path d="M451.000,176.000 H451.000 A11.000,11.000 0 0 1 462.000,187.000 V198.000 H440.000 V187.000 A11.000,11.000 0 0 1 451.000,176.000 Z"/><circle cx="495.000" cy="187.000" r="11"/><circle cx="539.000" cy="187.000" r="11"/><rect x="572.000" y="176.000" width="22" height="22"/><circle cx="627.000" cy="187.000" r="11"/><path d="M660.000,176.000 H682.000 V187.000 A11.000,11.000 0 0 1 671.000,198.000 H671.000 A11.000,11.000 0 0 1 660.000,187.000 V176.000 Z"/><circle cx="715.000" cy="187.000" r="11"/><circle cx="759.000" cy="187.000" r="11"/><circle cx="253.000" cy="209.000" r="11"/><rect x="308.000" y="198.000" width="22" height="22"/><rect x="352.000" y="198.000" width="22" height="22"/><path d="M396.000,198.000 H418.000 V209.000 A11.000,11.000 0 0 1 407.000,220.000 H407.000 A11.000,11.000 0 0 1 396.000,209.000 V198.000 Z"/><rect x="440.000" y="198.000" width="22" height="22"/><rect x="572.000" y="198.000" width="22" height="22"/><path d="M77.000,220.000 H88.000 V242.000 H66.000 V231.000 A11.000,11.000 0 0 1 77.000,220.000 Z"/><rect x="88.000" y="220.000" width="22" height="22"/><rect x="110.000" y="220.000" width="22" height="22"/><rect x="132.000" y="220.000" width="22" height="22"/><rect x="154.000" y="220.000" width="22" height="22"/><rect x="176.000" y="220.000" width="22" height="22"/><path d="M198.000,220.000 H209.000 A11.000,11.000 0 0 1 220.000,231.000 V231.000 A11.000,11.000 0 0 1 209.000,242.000 H198.000 V220.000 Z"/><path d="M275.000,220.000 H286.000 V242.000 H264.000 V231.000 A11.000,11.000 0 0 1 275.000,220.000 Z"/><rect x="286.000" y="220.000" width="22" height="22"/><path d="M308.000,220.000 H330.000 V231.000 A11.000,11.000 0 0 1 319.000,242.000 H308.000 V220.000 Z"/><rect x="352.000" y="220.000" width="22" height="22"/><path d="M429.000,220.000 H440.000 V242.000 H429.000 A11.000,11.000 0 0 1 418.000,231.000 V231.000 A11.000,11.000 0 0 1 429.000,220.000 Z"/><rect x="440.000" y="220.000" width="22" height="22"/><path d="M462.000,220.000 H473.000 A11.000,11.000 0 0 1 484.000,231.000 V242.000 H462.000 V220.000 Z"/><path d="M561.000,220.000 H572.000 V242.000 H561.000 A11.000,11.000 0 0 1 550.000,231.000 V231.000 A11.000,11.000 0 0 1 561.000,220.000 Z"/><rect x="572.000" y="220.000" width="22" height="22"/><path d="M594.000,220.000 H605.000 A11.000,11.000 0 0 1 616.000,231.000 V242.000 H594.000 V220.000 Z"/><circle cx="649.000" cy="231.000" r="11"/><circle cx="693.000" cy="231.000" r="11"/><path d="M737.000,220.000 H737.000 A11.000,11.000 0 0 1 748.000,231.000 V242.000 H726.000 V231.000 A11.000,11.000 0 0 1 737.000,220.000 Z"/><path d="M825.000,220.000 H836.000 V242.000 H814.000 V231.000 A11.000,11.000 0 0 1 825.000,220.000 Z"/><path d="M836.000,220.000 H847.000 A11.000,11.000 0 0 1 858.000,231.000 V242.000 H836.000 V220.000 Z"/><path d="M935.000,220.000 H935.000 A11.000,11.000 0 0 1 946.000,231.000 V242.000 H924.000 V231.000 A11.000,11.000 0 0 1 935.000,220.000 Z"/><path d="M55.000,242.000 H66.000 V264.000 H44.000 V253.000 A11.000,11.000 0 0 1 55.000,242.000 Z"/><rect x="66.000" y="242.000" width="22" height="22"/><rect x="88.000" y="242.000" width="22" height="22"/><rect x="110.000" y="242.000" width="22" height="22"/><rect x="132.000" y="242.000" width="22" height="22"/><rect x="264.000" y="242.000" width="22" height="22"/><path d="M341.000,242.000 H352.000 V264.000 H341.000 A11.000,11.000 0 0 1 330.000,253.000 V253.000 A11.000,11.000 0 0 1 341.000,242.000 Z"/><rect x="352.000" y="242.000" width="22" height="22"/><rect x="374.000" y="242.000" width="22" height="22"/><path d="M396.000,242.000 H407.000 A11.000,11.000 0 0 1 418.000,253.000 V264.000 H396.000 V242.000 Z"/><path d="M462.000,242.000 H484.000 V264.000 H473.000 A11.000,11.000 0 0 1 462.000,253.000 V242.000 Z"/><rect x="484.000" y="242.000" width="22" height="22"/><path d="M506.000,242.000 H517.000 A11.000,11.000 0 0 1 528.000,253.000 V253.000 A11.000,11.000 0 0 1 517.000,264.000 H506.000 V242.000 Z"/><path d="M572.000,242.000 H594.000 V264.000 H583.000 A11.000,11.000 0 0 1 572.000,253.000 V242.000 Z"/><path d="M594.000,242.000 H616.000 V253.000 A11.000,11.000 0 0 1 605.000,264.000 H594.000 V242.000 Z"/><path d="M671.000,242.000 H671.000 A11.000,11.000 0 0 1 682.000,253.000 V264.000 H660.000 V253.000 A11.000,11.000 0 0 1 671.000,242.000 Z"/><path d="M715.000,242.000 H726.000 V264.000 H704.000 V253.000 A11.000,11.000 0 0 1 715.000,242.000 Z"/><rect x="726.000" y="242.000" width="22" height="22"/><rect x="748.000" y="242.000" width="22" height="22"/><rect x="770.000" y="242.000" width="22" height="22"/><rect x="792.000" y="242.000" width="22" height="22"/><rect x="814.000" y="242.000" width="22" height="22"/><rect x="836.000" y="242.000" width="22" height="22"/><path d="M891.000,242.000 H902.000 V264.000 H891.000 A11.000,11.000 0 0 1 880.000,253.000 V253.000 A11.000,11.000 0 0 1 891.000,242.000 Z"/><rect x="902.000" y="242.000" width="22" height="22"/><path d="M924.000,242.000 H946.000 V253.000 A11.000,11.000 0 0 1 935.000,264.000 H924.000 V242.000 Z"/><rect x="44.000" y="264.000" width="22" height="22"/><path d="M88.000,264.000 H110.000 V286.000 H99.000 A11.000,11.000 0 0 1 88.000,275.000 V264.000 Z"/><rect x="110.000" y="264.000" width="22" height="22"/><path d="M132.000,264.000 H154.000 V275.000 A11.000,11.000 0 0 1 143.000,286.000 H132.000 V264.000 Z"/><circle cx="187.000" cy="275.000" r="11"/><path d="M253.000,264.000 H264.000 V286.000 H253.000 A11.000,11.000 0 0 1 242.000,275.000 V275.000 A11.000,11.000 0 0 1 253.000,264.000 Z"/><rect x="264.000" y="264.000" width="22" height="22"/><path d="M286.000,264.000 H297.000 A11.000,11.000 0 0 1 308.000,275.000 V286.000 H286.000 V264.000 Z"/><path d="M352.000,264.000 H374.000 V275.000 A11.000,11.000 0 0 1 363.000,286.000 H363.000 A11.000,11.000 0 0 1 352.000,275.000 V264.000 Z"/><path d="M396.000,264.000 H418.000 V286.000 H407.000 A11.000,11.000 0 0 1 396.000,275.000 V264.000 Z"/><rect x="418.000" y="264.000" width="22" height="22"/><path d="M440.000,264.000 H451.000 A11.000,11.000 0 0 1 462.000,275.000 V286.000 H440.000 V264.000 Z"/><path d="M484.000,264.000 H506.000 V275.000 A11.000,11.000 0 0 1 495.000,286.000 H495.000 A11.000,11.000 0 0 1 484.000,275.000 V264.000 Z"/><path d="M539.000,264.000 H550.000 V286.000 H528.000 V275.000 A11.000,11.000 0 0 1 539.000,264.000 Z"/><path d="M550.000,264.000 H561.000 A11.000,11.000 0 0 1 572.000,275.000 V275.000 A11.000,11.000 0 0 1 561.000,286.000 H550.000 V264.000 Z"/><path d="M649.000,264.000 H660.000 V286.000 H638.000 V275.000 A11.000,11.000 0 0 1 649.000,264.000 Z"/><rect x="660.000" y="264.000" width="22" height="22"/><rect x="682.000" y="264.000" width="22" height="22"/><rect x="704.000" y="264.000" width="22" height="22"/><rect x="748.000" y="264.000" width="22" height="22"/><path d="M814.000,264.000 H836.000 V286.000 H825.000 A11.000,11.000 0 0 1 814.000,275.000 V264.000 Z"/><path d="M836.000,264.000 H858.000 V275.000 A11.000,11.000 0 0 1 847.000,286.000 H836.000 V264.000 Z"/><rect x="44.000" y="286.000" width="22" height="22"/><path d="M66.000,286.000 H77.000 A11.000,11.000 0 0 1 88.000,297.000 V308.000 H66.000 V286.000 Z"/><path d="M165.000,286.000 H165.000 A11.000,11.000 0 0 1 176.000,297.000 V308.000 H154.000 V297.000 A11.000,11.000 0 0 1 165.000,286.000 Z"/><circle cx="209.000" cy="297.000" r="11"/><path d="M264.000,286.000 H286.000 V308.000 H275.000 A11.000,11.000 0 0 1 264.000,297.000 V286.000 Z"/><rect x="286.000" y="286.000" width="22" height="22"/><rect x="308.000" y="286.000" width="22" height="22"/><path d="M330.000,286.000 H341.000 A11.000,11.000 0 0 1 352.000,297.000 V308.000 H330.000 V286.000 Z"/><path d="M440.000,286.000 H462.000 V308.000 H451.000 A11.000,11.000 0 0 1 440.000,297.000 V286.000 Z"/><path d="M462.000,286.000 H473.000 A11.000,11.000 0 0 1 484.000,297.000 V308.000 H462.000 V286.000 Z"/><rect x="528.000" y="286.000" width="22" height="22"/><circle cx="583.000" cy="297.000" r="11"/><path d="M627.000,286.000 H638.000 V308.000 H616.000 V297.000 A11.000,11.000 0 0 1 627.000,286.000 Z"/><rect x="638.000" y="286.000" width="22" height="22"/><path d="M660.000,286.000 H682.000 V297.000 A11.000,11.000 0 0 1 671.000,308.000 H660.000 V286.000 Z"/><rect x="704.000" y="286.000" width="22" height="22"/><rect x="726.000" y="286.000" width="22" height="22"/><path d="M748.000,286.000 H770.000 V297.000 A11.000,11.000 0 0 1 759.000,308.000 H748.000 V286.000 Z"/><path d="M869.000,286.000 H869.000 A11.000,11.000 0 0 1 880.000,297.000 V308.000 H858.000 V297.000 A11.000,11.000 0 0 1 869.000,286.000 Z"/><path d="M935.000,286.000 H935.000 A11.000,11.000 0 0 1 946.000,297.000 V308.000 H924.000 V297.000 A11.000,11.000 0 0 1 935.000,286.000 Z"/><rect x="44.000" y="308.000" width="22" height="22"/><rect x="66.000" y="308.000" width="22" height="22"/><path d="M88.000,308.000 H99.000 A11.000,11.000 0 0 1 110.000,319.000 V330.000 H88.000 V308.000 Z"/><path d="M154.000,308.000 H176.000 V330.000 H165.000 A11.000,11.000 0 0 1 154.000,319.000 V308.000 Z"/><path d="M176.000,308.000 H187.000 A11.000,11.000 0 0 1 198.000,319.000 V319.000 A11.000,11.000 0 0 1 187.000,330.000 H176.000 V308.000 Z"/><circle cx="253.000" cy="319.000" r="11"/><path d="M286.000,308.000 H308.000 V330.000 H297.000 A11.000,11.000 0 0 1 286.000,319.000 V308.000 Z"/><rect x="308.000" y="308.000" width="22" height="22"/><rect x="330.000" y="308.000" width="22" height="22"/><path d="M385.000,308.000 H396.000 V330.000 H385.000 A11.000,11.000 0 0 1 374.000,319.000 V319.000 A11.000,11.000 0 0 1 385.000,308.000 Z"/><rect x="396.000" y="308.000" width="22" height="22"/><path d="M418.000,308.000 H429.000 A11.000,11.000 0 0 1 440.000,319.000 V319.000 A11.000,11.000 0 0 1 429.000,330.000 H418.000 V308.000 Z"/><rect x="462.000" y="308.000" width="22" height="22"/><path d="M484.000,308.000 H495.000 A11.000,11.000 0 0 1 506.000,319.000 V330.000 H484.000 V308.000 Z"/><rect x="528.000" y="308.000" width="22" height="22"/><path d="M550.000,308.000 H561.000 A11.000,11.000 0 0 1 572.000,319.000 V319.000 A11.000,11.000 0 0 1 561.000,330.000 H550.000 V308.000 Z"/><path d="M605.000,308.000 H616.000 V330.000 H605.000 A11.000,11.000 0 0 1 594.000,319.000 V319.000 A11.000,11.000 0 0 1 605.000,308.000 Z"/><rect x="616.000" y="308.000" width="22" height="22"/><rect x="638.000" y="308.000" width="22" height="22"/><path d="M693.000,308.000 H704.000 V330.000 H693.000 A11.000,11.000 0 0 1 682.000,319.000 V319.000 A11.000,11.000 0 0 1 693.000,308.000 Z"/><rect x="704.000" y="308.000" width="22" height="22"/><path d="M726.000,308.000 H748.000 V319.000 A11.000,11.000 0 0 1 737.000,330.000 H726.000 V308.000 Z"/><circle cx="825.000" cy="319.000" r="11"/><rect x="858.000" y="308.000" width="22" height="22"/><path d="M880.000,308.000 H891.000 A11.000,11.000 0 0 1 902.000,319.000 V319.000 A11.000,11.000 0 0 1 891.000,330.000 H880.000 V308.000 Z"/><rect x="924.000" y="308.000" width="22" height="22"/><rect x="44.000" y="330.000" width="22" height="22"/><path d="M88.000,330.000 H110.000 V341.000 A11.000,11.000 0 0 1 99.000,352.000 H99.000 A11.000,11.000 0 0 1 88.000,341.000 V330.000 Z"/><circle cx="143.000" cy="341.000" r="11"/><path d="M209.000,330.000 H220.000 V352.000 H209.000 A11.000,11.000 0 0 1 198.000,341.000 V341.000 A11.000,11.000 0 0 1 209.000,330.000 Z"/><path d="M220.000,330.000 H231.000 A11.000,11.000 0 0 1 242.000,341.000 V352.000 H220.000 V330.000 Z"/><rect x="330.000" y="330.000" width="22" height="22"/><path d="M352.000,330.000 H363.000 A11.000,11.000 0 0 1 374.000,341.000 V341.000 A11.000,11.000 0 0 1 363.000,352.000 H352.000 V330.000 Z"/><rect x="396.000" y="330.000" width="22" height="22"/><rect x="462.000" y="330.000" width="22" height="22"/><rect x="484.000" y="330.000" width="22" height="22"/><rect x="506.000" y="330.000" width="22" height="22"/><path d="M528.000,330.000 H550.000 V341.000 A11.000,11.000 0 0 1 539.000,352.000 H528.000 V330.000 Z"/><circle cx="583.000" cy="341.000" r="11"/><path d="M638.000,330.000 H660.000 V352.000 H649.000 A11.000,11.000 0 0 1 638.000,341.000 V330.000 Z"/><path d="M660.000,330.000 H671.000 A11.000,11.000 0 0 1 682.000,341.000 V341.000 A11.000,11.000 0 0 1 671.000,352.000 H660.000 V330.000 Z"/><rect x="704.000" y="330.000" width="22" height="22"/><circle cx="803.000" cy="341.000" r="11"/><path d="M847.000,330.000 H858.000 V352.000 H847.000 A11.000,11.000 0 0 1 836.000,341.000 V341.000 A11.000,11.000 0 0 1 847.000,330.000 Z"/><path d="M858.000,330.000 H880.000 V341.000 A11.000,11.000 0 0 1 869.000,352.000 H858.000 V330.000 Z"/><path d="M913.000,330.000 H924.000 V352.000 H913.000 A11.000,11.000 0 0 1 902.000,341.000 V341.000 A11.000,11.000 0 0 1 913.000,330.000 Z"/><path d="M924.000,330.000 H946.000 V341.000 A11.000,11.000 0 0 1 935.000,352.000 H924.000 V330.000 Z"/><rect x="44.000" y="352.000" width="22" height="22"/><path d="M66.000,352.000 H77.000 A11.000,11.000 0 0 1 88.000,363.000 V363.000 A11.000,11.000 0 0 1 77.000,374.000 H66.000 V352.000 Z"/><circle cx="187.000" cy="363.000" r="11"/><rect x="220.000" y="352.000" width="22" height="22"/><path d="M275.000,352.000 H286.000 V374.000 H275.000 A11.000,11.000 0 0 1 264.000,363.000 V363.000 A11.000,11.000 0 0 1 275.000,352.000 Z"/><rect x="286.000" y="352.000" width="22" height="22"/><rect x="308.000" y="352.000" width="22" height="22"/><path d="M330.000,352.000 H352.000 V363.000 A11.000,11.000 0 0 1 341.000,374.000 H330.000 V352.000 Z"/><path d="M385.000,352.000 H396.000 V374.000 H374.000 V363.000 A11.000,11.000 0 0 1 385.000,352.000 Z"/><rect x="396.000" y="352.000" width="22" height="22"/><rect x="418.000" y="352.000" width="22" height="22"/><rect x="440.000" y="352.000" width="22" height="22"/><path d="M462.000,352.000 H484.000 V363.000 A11.000,11.000 0 0 1 473.000,374.000 H462.000 V352.000 Z"/><path d="M506.000,352.000 H528.000 V363.000 A11.000,11.000 0 0 1 517.000,374.000 H517.000 A11.000,11.000 0 0 1 506.000,363.000 V352.000 Z"/><path d="M627.000,352.000 H627.000 A11.000,11.000 0 0 1 638.000,363.000 V374.000 H616.000 V363.000 A11.000,11.000 0 0 1 627.000,352.000 Z"/><rect x="704.000" y="352.000" width="22" height="22"/><circle cx="781.000" cy="363.000" r="11"/><path d="M825.000,352.000 H825.000 A11.000,11.000 0 0 1 836.000,363.000 V374.000 H814.000 V363.000 A11.000,11.000 0 0 1 825.000,352.000 Z"/><path d="M44.000,374.000 H66.000 V385.000 A11.000,11.000 0 0 1 55.000,396.000 H55.000 A11.000,11.000 0 0 1 44.000,385.000 V374.000 Z"/><path d="M99.000,374.000 H110.000 V396.000 H99.000 A11.000,11.000 0 0 1 88.000,385.000 V385.000 A11.000,11.000 0 0 1 99.000,374.000 Z"/><path d="M110.000,374.000 H121.000 A11.000,11.000 0 0 1 132.000,385.000 V385.000 A11.000,11.000 0 0 1 121.000,396.000 H110.000 V374.000 Z"/><path d="M165.000,374.000 H165.000 A11.000,11.000 0 0 1 176.000,385.000 V396.000 H154.000 V385.000 A11.000,11.000 0 0 1 165.000,374.000 Z"/><rect x="220.000" y="374.000" width="22" height="22"/><path d="M242.000,374.000 H253.000 A11.000,11.000 0 0 1 264.000,385.000 V396.000 H242.000 V374.000 Z"/><path d="M308.000,374.000 H330.000 V385.000 A11.000,11.000 0 0 1 319.000,396.000 H319.000 A11.000,11.000 0 0 1 308.000,385.000 V374.000 Z"/><rect x="374.000" y="374.000" width="22" height="22"/><path d="M396.000,374.000 H418.000 V385.000 A11.000,11.000 0 0 1 407.000,396.000 H396.000 V374.000 Z"/><rect x="440.000" y="374.000" width="22" height="22"/><circle cx="539.000" cy="385.000" r="11"/><circle cx="583.000" cy="385.000" r="11"/><rect x="616.000" y="374.000" width="22" height="22"/><circle cx="671.000" cy="385.000" r="11"/><rect x="704.000" y="374.000" width="22" height="22"/><path d="M803.000,374.000 H814.000 V396.000 H803.000 A11.000,11.000 0 0 1 792.000,385.000 V385.000 A11.000,11.000 0 0 1 803.000,374.000 Z"/><rect x="814.000" y="374.000" width="22" height="22"/><rect x="836.000" y="374.000" width="22" height="22"/><path d="M858.000,374.000 H869.000 A11.000,11.000 0 0 1 880.000,385.000 V385.000 A11.000,11.000 0 0 1 869.000,396.000 H858.000 V374.000 Z"/><path d="M913.000,374.000 H924.000 V396.000 H913.000 A11.000,11.000 0 0 1 902.000,385.000 V385.000 A11.000,11.000 0 0 1 913.000,374.000 Z"/><path d="M924.000,374.000 H935.000 A11.000,11.000 0 0 1 946.000,385.000 V385.000 A11.000,11.000 0 0 1 935.000,396.000 H924.000 V374.000 Z"/><path d="M154.000,396.000 H176.000 V418.000 H165.000 A11.000,11.000 0 0 1 154.000,407.000 V396.000 Z"/><rect x="176.000" y="396.000" width="22" height="22"/><rect x="198.000" y="396.000" width="22" height="22"/><rect x="220.000" y="396.000" width="22" height="22"/><rect x="242.000" y="396.000" width="22" height="22"/><path d="M341.000,396.000 H352.000 V418.000 H330.000 V407.000 A11.000,11.000 0 0 1 341.000,396.000 Z"/><rect x="352.000" y="396.000" width="22" height="22"/><rect x="374.000" y="396.000" width="22" height="22"/><rect x="440.000" y="396.000" width="22" height="22"/><circle cx="495.000" cy="407.000" r="11"/><path d="M605.000,396.000 H616.000 V418.000 H594.000 V407.000 A11.000,11.000 0 0 1 605.000,396.000 Z"/><path d="M616.000,396.000 H638.000 V407.000 A11.000,11.000 0 0 1 627.000,418.000 H616.000 V396.000 Z"/><path d="M693.000,396.000 H704.000 V418.000 H693.000 A11.000,11.000 0 0 1 682.000,407.000 V407.000 A11.000,11.000 0 0 1 693.000,396.000 Z"/><rect x="704.000" y="396.000" width="22" height="22"/><path d="M759.000,396.000 H770.000 V418.000 H748.000 V407.000 A11.000,11.000 0 0 1 759.000,396.000 Z"/><path d="M770.000,396.000 H781.000 A11.000,11.000 0 0 1 792.000,407.000 V407.000 A11.000,11.000 0 0 1 781.000,418.000 H770.000 V396.000 Z"/><rect x="814.000" y="396.000" width="22" height="22"/><circle cx="891.000" cy="407.000" r="11"/><path d="M55.000,418.000 H66.000 V440.000 H55.000 A11.000,11.000 0 0 1 44.000,429.000 V429.000 A11.000,11.000 0 0 1 55.000,418.000 Z"/><rect x="66.000" y="418.000" width="22" height="22"/><rect x="88.000" y="418.000" width="22" height="22"/><path d="M110.000,418.000 H121.000 A11.000,11.000 0 0 1 132.000,429.000 V429.000 A11.000,11.000 0 0 1 121.000,440.000 H110.000 V418.000 Z"/><path d="M198.000,418.000 H220.000 V429.000 A11.000,11.000 0 0 1 209.000,440.000 H209.000 A11.000,11.000 0 0 1 198.000,429.000 V418.000 Z"/><path d="M242.000,418.000 H264.000 V429.000 A11.000,11.000 0 0 1 253.000,440.000 H253.000 A11.000,11.000 0 0 1 242.000,429.000 V418.000 Z"/><path d="M297.000,418.000 H308.000 V440.000 H286.000 V429.000 A11.000,11.000 0 0 1 297.000,418.000 Z"/><rect x="308.000" y="418.000" width="22" height="22"/><path d="M330.000,418.000 H352.000 V429.000 A11.000,11.000 0 0 1 341.000,440.000 H330.000 V418.000 Z"/><path d="M374.000,418.000 H396.000 V429.000 A11.000,11.000 0 0 1 385.000,440.000 H385.000 A11.000,11.000 0 0 1 374.000,429.000 V418.000 Z"/><path d="M429.000,418.000 H440.000 V440.000 H429.000 A11.000,11.000 0 0 1 418.000,429.000 V429.000 A11.000,11.000 0 0 1 429.000,418.000 Z"/><rect x="440.000" y="418.000" width="22" height="22"/><circle cx="561.000" cy="429.000" r="11"/><rect x="594.000" y="418.000" width="22" height="22"/><path d="M671.000,418.000 H671.000 A11.000,11.000 0 0 1 682.000,429.000 V440.000 H660.000 V429.000 A11.000,11.000 0 0 1 671.000,418.000 Z"/><rect x="704.000" y="418.000" width="22" height="22"/><rect x="726.000" y="418.000" width="22" height="22"/><rect x="748.000" y="418.000" width="22" height="22"/><path d="M803.000,418.000 H814.000 V440.000 H792.000 V429.000 A11.000,11.000 0 0 1 803.000,418.000 Z"/><rect x="814.000" y="418.000" width="22" height="22"/><rect x="836.000" y="418.000" width="22" height="22"/><path d="M858.000,418.000 H869.000 A11.000,11.000 0 0 1 880.000,429.000 V440.000 H858.000 V418.000 Z"/><path d="M913.000,418.000 H924.000 V440.000 H913.000 A11.000,11.000 0 0 1 902.000,429.000 V429.000 A11.000,11.000 0 0 1 913.000,418.000 Z"/><path d="M924.000,418.000 H935.000 A11.000,11.000 0 0 1 946.000,429.000 V429.000 A11.000,11.000 0 0 1 935.000,440.000 H924.000 V418.000 Z"/><path d="M165.000,440.000 H176.000 V462.000 H154.000 V451.000 A11.000,11.000 0 0 1 165.000,440.000 Z"/><path d="M176.000,440.000 H187.000 A11.000,11.000 0 0 1 198.000,451.000 V451.000 A11.000,11.000 0 0 1 187.000,462.000 H176.000 V440.000 Z"/><path d="M286.000,440.000 H308.000 V462.000 H297.000 A11.000,11.000 0 0 1 286.000,451.000 V440.000 Z"/><path d="M308.000,440.000 H330.000 V451.000 A11.000,11.000 0 0 1 319.000,462.000 H308.000 V440.000 Z"/><path d="M363.000,440.000 H363.000 A11.000,11.000 0 0 1 374.000,451.000 V462.000 H352.000 V451.000 A11.000,11.000 0 0 1 363.000,440.000 Z"/><path d="M440.000,440.000 H462.000 V451.000 A11.000,11.000 0 0 1 451.000,462.000 H451.000 A11.000,11.000 0 0 1 440.000,451.000 V440.000 Z"/><circle cx="495.000" cy="451.000" r="11"/><rect x="594.000" y="440.000" width="22" height="22"/><rect x="616.000" y="440.000" width="22" height="22"/><rect x="638.000" y="440.000" width="22" height="22"/><rect x="660.000" y="440.000" width="22" height="22"/><path d="M704.000,440.000 H726.000 V451.000 A11.000,11.000 0 0 1 715.000,462.000 H715.000 A11.000,11.000 0 0 1 704.000,451.000 V440.000 Z"/><path d="M748.000,440.000 H770.000 V462.000 H759.000 A11.000,11.000 0 0 1 748.000,451.000 V440.000 Z"/><rect x="770.000" y="440.000" width="22" height="22"/><path d="M792.000,440.000 H814.000 V451.000 A11.000,11.000 0 0 1 803.000,462.000 H792.000 V440.000 Z"/><rect x="836.000" y="440.000" width="22" height="22"/><rect x="858.000" y="440.000" width="22" height="22"/><path d="M55.000,462.000 H66.000 V484.000 H55.000 A11.000,11.000 0 0 1 44.000,473.000 V473.000 A11.000,11.000 0 0 1 55.000,462.000 Z"/><path d="M66.000,462.000 H77.000 A11.000,11.000 0 0 1 88.000,473.000 V484.000 H66.000 V462.000 Z"/><path d="M143.000,462.000 H154.000 V484.000 H132.000 V473.000 A11.000,11.000 0 0 1 143.000,462.000 Z"/><rect x="154.000" y="462.000" width="22" height="22"/><path d="M341.000,462.000 H352.000 V484.000 H330.000 V473.000 A11.000,11.000 0 0 1 341.000,462.000 Z"/><rect x="352.000" y="462.000" width="22" height="22"/><path d="M374.000,462.000 H385.000 A11.000,11.000 0 0 1 396.000,473.000 V484.000 H374.000 V462.000 Z"/><path d="M429.000,462.000 H429.000 A11.000,11.000 0 0 1 440.000,473.000 V484.000 H418.000 V473.000 A11.000,11.000 0 0 1 429.000,462.000 Z"/><path d="M539.000,462.000 H539.000 A11.000,11.000 0 0 1 550.000,473.000 V484.000 H528.000 V473.000 A11.000,11.000 0 0 1 539.000,462.000 Z"/><path d="M594.000,462.000 H616.000 V473.000 A11.000,11.000 0 0 1 605.000,484.000 H605.000 A11.000,11.000 0 0 1 594.000,473.000 V462.000 Z"/><rect x="638.000" y="462.000" width="22" height="22"/><rect x="660.000" y="462.000" width="22" height="22"/><rect x="770.000" y="462.000" width="22" height="22"/><path d="M836.000,462.000 H858.000 V484.000 H847.000 A11.000,11.000 0 0 1 836.000,473.000 V462.000 Z"/><rect x="858.000" y="462.000" width="22" height="22"/><path d="M935.000,462.000 H935.000 A11.000,11.000 0 0 1 946.000,473.000 V484.000 H924.000 V473.000 A11.000,11.000 0 0 1 935.000,462.000 Z"/><rect x="66.000" y="484.000" width="22" height="22"/><path d="M121.000,484.000 H132.000 V506.000 H110.000 V495.000 A11.000,11.000 0 0 1 121.000,484.000 Z"/><rect x="132.000" y="484.000" width="22" height="22"/><rect x="154.000" y="484.000" width="22" height="22"/><rect x="176.000" y="484.000" width="22" height="22"/><path d="M198.000,484.000 H209.000 A11.000,11.000 0 0 1 220.000,495.000 V495.000 A11.000,11.000 0 0 1 209.000,506.000 H198.000 V484.000 Z"/><circle cx="275.000" cy="495.000" r="11"/><path d="M330.000,484.000 H352.000 V495.000 A11.000,11.000 0 0 1 341.000,506.000 H341.000 A11.000,11.000 0 0 1 330.000,495.000 V484.000 Z"/><rect x="374.000" y="484.000" width="22" height="22"/><path d="M418.000,484.000 H440.000 V506.000 H429.000 A11.000,11.000 0 0 1 418.000,495.000 V484.000 Z"/><path d="M440.000,484.000 H451.000 A11.000,11.000 0 0 1 462.000,495.000 V506.000 H440.000 V484.000 Z"/><path d="M517.000,484.000 H528.000 V506.000 H506.000 V495.000 A11.000,11.000 0 0 1 517.000,484.000 Z"/><path d="M528.000,484.000 H550.000 V495.000 A11.000,11.000 0 0 1 539.000,506.000 H528.000 V484.000 Z"/><circle cx="583.000" cy="495.000" r="11"/><path d="M627.000,484.000 H638.000 V506.000 H627.000 A11.000,11.000 0 0 1 616.000,495.000 V495.000 A11.000,11.000 0 0 1 627.000,484.000 Z"/><rect x="638.000" y="484.000" width="22" height="22"/><rect x="660.000" y="484.000" width="22" height="22"/><circle cx="715.000" cy="495.000" r="11"/><path d="M759.000,484.000 H770.000 V506.000 H759.000 A11.000,11.000 0 0 1 748.000,495.000 V495.000 A11.000,11.000 0 0 1 759.000,484.000 Z"/><path d="M770.000,484.000 H792.000 V495.000 A11.000,11.000 0 0 1 781.000,506.000 H770.000 V484.000 Z"/><rect x="858.000" y="484.000" width="22" height="22"/><path d="M880.000,484.000 H891.000 A11.000,11.000 0 0 1 902.000,495.000 V506.000 H880.000 V484.000 Z"/><rect x="924.000" y="484.000" width="22" height="22"/><path d="M55.000,506.000 H66.000 V528.000 H55.000 A11.000,11.000 0 0 1 44.000,517.000 V517.000 A11.000,11.000 0 0 1 55.000,506.000 Z"/><rect x="66.000" y="506.000" width="22" height="22"/><rect x="88.000" y="506.000" width="22" height="22"/><path d="M110.000,506.000 H132.000 V517.000 A11.000,11.000 0 0 1 121.000,528.000 H110.000 V506.000 Z"/><circle cx="231.000" cy="517.000" r="11"/><path d="M363.000,506.000 H374.000 V528.000 H352.000 V517.000 A11.000,11.000 0 0 1 363.000,506.000 Z"/><path d="M374.000,506.000 H396.000 V517.000 A11.000,11.000 0 0 1 385.000,528.000 H374.000 V506.000 Z"/><path d="M440.000,506.000 H462.000 V528.000 H451.000 A11.000,11.000 0 0 1 440.000,517.000 V506.000 Z"/><rect x="462.000" y="506.000" width="22" height="22"/><rect x="484.000" y="506.000" width="22" height="22"/><path d="M506.000,506.000 H528.000 V517.000 A11.000,11.000 0 0 1 517.000,528.000 H506.000 V506.000 Z"/><path d="M605.000,506.000 H605.000 A11.000,11.000 0 0 1 616.000,517.000 V528.000 H594.000 V517.000 A11.000,11.000 0 0 1 605.000,506.000 Z"/><rect x="660.000" y="506.000" width="22" height="22"/><path d="M682.000,506.000 H693.000 A11.000,11.000 0 0 1 704.000,517.000 V517.000 A11.000,11.000 0 0 1 693.000,528.000 H682.000 V506.000 Z"/><circle cx="737.000" cy="517.000" r="11"/><path d="M803.000,506.000 H814.000 V528.000 H792.000 V517.000 A11.000,11.000 0 0 1 803.000,506.000 Z"/><rect x="814.000" y="506.000" width="22" height="22"/><rect x="836.000" y="506.000" width="22" height="22"/><rect x="858.000" y="506.000" width="22" height="22"/><rect x="880.000" y="506.000" width="22" height="22"/><rect x="902.000" y="506.000" width="22" height="22"/><path d="M924.000,506.000 H946.000 V517.000 A11.000,11.000 0 0 1 935.000,528.000 H924.000 V506.000 Z"/><path d="M165.000,528.000 H176.000 V550.000 H165.000 A11.000,11.000 0 0 1 154.000,539.000 V539.000 A11.000,11.000 0 0 1 165.000,528.000 Z"/><path d="M176.000,528.000 H187.000 A11.000,11.000 0 0 1 198.000,539.000 V539.000 A11.000,11.000 0 0 1 187.000,550.000 H176.000 V528.000 Z"/><path d="M253.000,528.000 H253.000 A11.000,11.000 0 0 1 264.000,539.000 V550.000 H242.000 V539.000 A11.000,11.000 0 0 1 253.000,528.000 Z"/><rect x="352.000" y="528.000" width="22" height="22"/><path d="M429.000,528.000 H429.000 A11.000,11.000 0 0 1 440.000,539.000 V550.000 H418.000 V539.000 A11.000,11.000 0 0 1 429.000,528.000 Z"/><rect x="462.000" y="528.000" width="22" height="22"/><circle cx="539.000" cy="539.000" r="11"/><path d="M594.000,528.000 H616.000 V550.000 H605.000 A11.000,11.000 0 0 1 594.000,539.000 V528.000 Z"/><rect x="616.000" y="528.000" width="22" height="22"/><rect x="638.000" y="528.000" width="22" height="22"/><rect x="660.000" y="528.000" width="22" height="22"/><circle cx="715.000" cy="539.000" r="11"/><circle cx="759.000" cy="539.000" r="11"/><path d="M792.000,528.000 H814.000 V539.000 A11.000,11.000 0 0 1 803.000,550.000 H803.000 A11.000,11.000 0 0 1 792.000,539.000 V528.000 Z"/><rect x="836.000" y="528.000" width="22" height="22"/><path d="M242.000,550.000 H264.000 V572.000 H253.000 A11.000,11.000 0 0 1 242.000,561.000 V550.000 Z"/><path d="M264.000,550.000 H275.000 A11.000,11.000 0 0 1 286.000,561.000 V561.000 A11.000,11.000 0 0 1 275.000,572.000 H264.000 V550.000 Z"/><path d="M319.000,550.000 H319.000 A11.000,11.000 0 0 1 330.000,561.000 V572.000 H308.000 V561.000 A11.000,11.000 0 0 1 319.000,550.000 Z"/><rect x="352.000" y="550.000" width="22" height="22"/><rect x="418.000" y="550.000" width="22" height="22"/><rect x="440.000" y="550.000" width="22" height="22"/><rect x="462.000" y="550.000" width="22" height="22"/><rect x="484.000" y="550.000" width="22" height="22"/><path d="M506.000,550.000 H517.000 A11.000,11.000 0 0 1 528.000,561.000 V572.000 H506.000 V550.000 Z"/><path d="M561.000,550.000 H561.000 A11.000,11.000 0 0 1 572.000,561.000 V572.000 H550.000 V561.000 A11.000,11.000 0 0 1 561.000,550.000 Z"/><rect x="638.000" y="550.000" width="22" height="22"/><rect x="660.000" y="550.000" width="22" height="22"/><path d="M825.000,550.000 H836.000 V572.000 H825.000 A11.000,11.000 0 0 1 814.000,561.000 V561.000 A11.000,11.000 0 0 1 825.000,550.000 Z"/><rect x="836.000" y="550.000" width="22" height="22"/><path d="M858.000,550.000 H869.000 A11.000,11.000 0 0 1 880.000,561.000 V561.000 A11.000,11.000 0 0 1 869.000,572.000 H858.000 V550.000 Z"/><path d="M935.000,550.000 H935.000 A11.000,11.000 0 0 1 946.000,561.000 V572.000 H924.000 V561.000 A11.000,11.000 0 0 1 935.000,550.000 Z"/><circle cx="55.000" cy="583.000" r="11"/><path d="M99.000,572.000 H99.000 A11.000,11.000 0 0 1 110.000,583.000 V594.000 H88.000 V583.000 A11.000,11.000 0 0 1 99.000,572.000 Z"/><path d="M143.000,572.000 H154.000 V594.000 H132.000 V583.000 A11.000,11.000 0 0 1 143.000,572.000 Z"/><rect x="154.000" y="572.000" width="22" height="22"/><rect x="176.000" y="572.000" width="22" height="22"/><path d="M198.000,572.000 H209.000 A11.000,11.000 0 0 1 220.000,583.000 V594.000 H198.000 V572.000 Z"/><path d="M297.000,572.000 H308.000 V594.000 H297.000 A11.000,11.000 0 0 1 286.000,583.000 V583.000 A11.000,11.000 0 0 1 297.000,572.000 Z"/><rect x="308.000" y="572.000" width="22" height="22"/><path d="M352.000,572.000 H374.000 V594.000 H363.000 A11.000,11.000 0 0 1 352.000,583.000 V572.000 Z"/><rect x="374.000" y="572.000" width="22" height="22"/><rect x="396.000" y="572.000" width="22" height="22"/><rect x="418.000" y="572.000" width="22" height="22"/><rect x="484.000" y="572.000" width="22" height="22"/><rect x="506.000" y="572.000" width="22" height="22"/><rect x="550.000" y="572.000" width="22" height="22"/><rect x="572.000" y="572.000" width="22" height="22"/><rect x="594.000" y="572.000" width="22" height="22"/><rect x="616.000" y="572.000" width="22" height="22"/><rect x="638.000" y="572.000" width="22" height="22"/><rect x="660.000" y="572.000" width="22" height="22"/><path d="M682.000,572.000 H693.000 A11.000,11.000 0 0 1 704.000,583.000 V594.000 H682.000 V572.000 Z"/><path d="M737.000,572.000 H737.000 A11.000,11.000 0 0 1 748.000,583.000 V594.000 H726.000 V583.000 A11.000,11.000 0 0 1 737.000,572.000 Z"/><circle cx="891.000" cy="583.000" r="11"/><rect x="924.000" y="572.000" width="22" height="22"/><path d="M77.000,594.000 H88.000 V616.000 H66.000 V605.000 A11.000,11.000 0 0 1 77.000,594.000 Z"/><rect x="88.000" y="594.000" width="22" height="22"/><rect x="132.000" y="594.000" width="22" height="22"/><path d="M154.000,594.000 H176.000 V605.000 A11.000,11.000 0 0 1 165.000,616.000 H154.000 V594.000 Z"/><rect x="198.000" y="594.000" width="22" height="22"/><rect x="220.000" y="594.000" width="22" height="22"/><path d="M242.000,594.000 H253.000 A11.000,11.000 0 0 1 264.000,605.000 V616.000 H242.000 V594.000 Z"/><rect x="308.000" y="594.000" width="22" height="22"/><path d="M330.000,594.000 H341.000 A11.000,11.000 0 0 1 352.000,605.000 V605.000 A11.000,11.000 0 0 1 341.000,616.000 H330.000 V594.000 Z"/><path d="M374.000,594.000 H396.000 V616.000 H385.000 A11.000,11.000 0 0 1 374.000,605.000 V594.000 Z"/><rect x="396.000" y="594.000" width="22" height="22"/><rect x="418.000" y="594.000" width="22" height="22"/><rect x="440.000" y="594.000" width="22" height="22"/><rect x="462.000" y="594.000" width="22" height="22"/><rect x="484.000" y="594.000" width="22" height="22"/><path d="M506.000,594.000 H528.000 V605.000 A11.000,11.000 0 0 1 517.000,616.000 H506.000 V594.000 Z"/><path d="M550.000,594.000 H572.000 V605.000 A11.000,11.000 0 0 1 561.000,616.000 H561.000 A11.000,11.000 0 0 1 550.000,605.000 V594.000 Z"/><path d="M660.000,594.000 H682.000 V616.000 H671.000 A11.000,11.000 0 0 1 660.000,605.000 V594.000 Z"/><path d="M682.000,594.000 H704.000 V605.000 A11.000,11.000 0 0 1 693.000,616.000 H682.000 V594.000 Z"/><path d="M726.000,594.000 H748.000 V605.000 A11.000,11.000 0 0 1 737.000,616.000 H737.000 A11.000,11.000 0 0 1 726.000,605.000 V594.000 Z"/><path d="M781.000,594.000 H792.000 V616.000 H770.000 V605.000 A11.000,11.000 0 0 1 781.000,594.000 Z"/><rect x="792.000" y="594.000" width="22" height="22"/><rect x="814.000" y="594.000" width="22" height="22"/><rect x="836.000" y="594.000" width="22" height="22"/><path d="M858.000,594.000 H869.000 A11.000,11.000 0 0 1 880.000,605.000 V605.000 A11.000,11.000 0 0 1 869.000,616.000 H858.000 V594.000 Z"/><path d="M913.000,594.000 H924.000 V616.000 H902.000 V605.000 A11.000,11.000 0 0 1 913.000,594.000 Z"/><path d="M924.000,594.000 H946.000 V605.000 A11.000,11.000 0 0 1 935.000,616.000 H924.000 V594.000 Z"/><path d="M66.000,616.000 H88.000 V638.000 H77.000 A11.000,11.000 0 0 1 66.000,627.000 V616.000 Z"/><path d="M88.000,616.000 H110.000 V627.000 A11.000,11.000 0 0 1 99.000,638.000 H88.000 V616.000 Z"/><rect x="132.000" y="616.000" width="22" height="22"/><path d="M187.000,616.000 H198.000 V638.000 H187.000 A11.000,11.000 0 0 1 176.000,627.000 V627.000 A11.000,11.000 0 0 1 187.000,616.000 Z"/><rect x="198.000" y="616.000" width="22" height="22"/><rect x="242.000" y="616.000" width="22" height="22"/><path d="M297.000,616.000 H308.000 V638.000 H286.000 V627.000 A11.000,11.000 0 0 1 297.000,616.000 Z"/><rect x="308.000" y="616.000" width="22" height="22"/><path d="M418.000,616.000 H440.000 V627.000 A11.000,11.000 0 0 1 429.000,638.000 H429.000 A11.000,11.000 0 0 1 418.000,627.000 V616.000 Z"/><rect x="484.000" y="616.000" width="22" height="22"/><path d="M539.000,616.000 H539.000 A11.000,11.000 0 0 1 550.000,627.000 V638.000 H528.000 V627.000 A11.000,11.000 0 0 1 539.000,616.000 Z"/><path d="M605.000,616.000 H616.000 V638.000 H605.000 A11.000,11.000 0 0 1 594.000,627.000 V627.000 A11.000,11.000 0 0 1 605.000,616.000 Z"/><rect x="616.000" y="616.000" width="22" height="22"/><path d="M638.000,616.000 H649.000 A11.000,11.000 0 0 1 660.000,627.000 V638.000 H638.000 V616.000 Z"/><path d="M759.000,616.000 H770.000 V638.000 H748.000 V627.000 A11.000,11.000 0 0 1 759.000,616.000 Z"/><path d="M770.000,616.000 H792.000 V627.000 A11.000,11.000 0 0 1 781.000,638.000 H770.000 V616.000 Z"/><rect x="836.000" y="616.000" width="22" height="22"/><path d="M902.000,616.000 H924.000 V627.000 A11.000,11.000 0 0 1 913.000,638.000 H913.000 A11.000,11.000 0 0 1 902.000,627.000 V616.000 Z"/><circle cx="55.000" cy="649.000" r="11"/><path d="M121.000,638.000 H132.000 V660.000 H121.000 A11.000,11.000 0 0 1 110.000,649.000 V649.000 A11.000,11.000 0 0 1 121.000,638.000 Z"/><rect x="132.000" y="638.000" width="22" height="22"/><rect x="198.000" y="638.000" width="22" height="22"/><rect x="242.000" y="638.000" width="22" height="22"/><rect x="264.000" y="638.000" width="22" height="22"/><rect x="286.000" y="638.000" width="22" height="22"/><path d="M308.000,638.000 H330.000 V649.000 A11.000,11.000 0 0 1 319.000,660.000 H308.000 V638.000 Z"/><path d="M407.000,638.000 H407.000 A11.000,11.000 0 0 1 418.000,649.000 V660.000 H396.000 V649.000 A11.000,11.000 0 0 1 407.000,638.000 Z"/><path d="M473.000,638.000 H484.000 V660.000 H462.000 V649.000 A11.000,11.000 0 0 1 473.000,638.000 Z"/><rect x="484.000" y="638.000" width="22" height="22"/><rect x="506.000" y="638.000" width="22" height="22"/><rect x="528.000" y="638.000" width="22" height="22"/><path d="M550.000,638.000 H561.000 A11.000,11.000 0 0 1 572.000,649.000 V660.000 H550.000 V638.000 Z"/><rect x="616.000" y="638.000" width="22" height="22"/><path d="M638.000,638.000 H660.000 V649.000 A11.000,11.000 0 0 1 649.000,660.000 H638.000 V638.000 Z"/><path d="M737.000,638.000 H748.000 V660.000 H726.000 V649.000 A11.000,11.000 0 0 1 737.000,638.000 Z"/><path d="M748.000,638.000 H770.000 V649.000 A11.000,11.000 0 0 1 759.000,660.000 H748.000 V638.000 Z"/><path d="M803.000,638.000 H814.000 V660.000 H803.000 A11.000,11.000 0 0 1 792.000,649.000 V649.000 A11.000,11.000 0 0 1 803.000,638.000 Z"/><rect x="814.000" y="638.000" width="22" height="22"/><rect x="836.000" y="638.000" width="22" height="22"/><path d="M858.000,638.000 H869.000 A11.000,11.000 0 0 1 880.000,649.000 V660.000 H858.000 V638.000 Z"/><circle cx="935.000" cy="649.000" r="11"/><circle cx="99.000" cy="671.000" r="11"/><path d="M132.000,660.000 H154.000 V682.000 H143.000 A11.000,11.000 0 0 1 132.000,671.000 V660.000 Z"/><rect x="154.000" y="660.000" width="22" height="22"/><rect x="176.000" y="660.000" width="22" height="22"/><rect x="198.000" y="660.000" width="22" height="22"/><rect x="220.000" y="660.000" width="22" height="22"/><rect x="242.000" y="660.000" width="22" height="22"/><rect x="264.000" y="660.000" width="22" height="22"/><path d="M363.000,660.000 H363.000 A11.000,11.000 0 0 1 374.000,671.000 V682.000 H352.000 V671.000 A11.000,11.000 0 0 1 363.000,660.000 Z"/><rect x="396.000" y="660.000" width="22" height="22"/><path d="M462.000,660.000 H484.000 V671.000 A11.000,11.000 0 0 1 473.000,682.000 H473.000 A11.000,11.000 0 0 1 462.000,671.000 V660.000 Z"/><rect x="528.000" y="660.000" width="22" height="22"/><rect x="550.000" y="660.000" width="22" height="22"/><rect x="572.000" y="660.000" width="22" height="22"/><rect x="594.000" y="660.000" width="22" height="22"/><path d="M616.000,660.000 H638.000 V671.000 A11.000,11.000 0 0 1 627.000,682.000 H616.000 V660.000 Z"/><path d="M671.000,660.000 H682.000 V682.000 H671.000 A11.000,11.000 0 0 1 660.000,671.000 V671.000 A11.000,11.000 0 0 1 671.000,660.000 Z"/><path d="M682.000,660.000 H693.000 A11.000,11.000 0 0 1 704.000,671.000 V682.000 H682.000 V660.000 Z"/><path d="M726.000,660.000 H748.000 V671.000 A11.000,11.000 0 0 1 737.000,682.000 H737.000 A11.000,11.000 0 0 1 726.000,671.000 V660.000 Z"/><path d="M814.000,660.000 H836.000 V671.000 A11.000,11.000 0 0 1 825.000,682.000 H825.000 A11.000,11.000 0 0 1 814.000,671.000 V660.000 Z"/><rect x="858.000" y="660.000" width="22" height="22"/><rect x="880.000" y="660.000" width="22" height="22"/><path d="M902.000,660.000 H913.000 A11.000,11.000 0 0 1 924.000,671.000 V671.000 A11.000,11.000 0 0 1 913.000,682.000 H902.000 V660.000 Z"/><path d="M55.000,682.000 H66.000 V704.000 H44.000 V693.000 A11.000,11.000 0 0 1 55.000,682.000 Z"/><path d="M66.000,682.000 H77.000 A11.000,11.000 0 0 1 88.000,693.000 V693.000 A11.000,11.000 0 0 1 77.000,704.000 H66.000 V682.000 Z"/><path d="M121.000,682.000 H121.000 A11.000,11.000 0 0 1 132.000,693.000 V704.000 H110.000 V693.000 A11.000,11.000 0 0 1 121.000,682.000 Z"/><path d="M198.000,682.000 H220.000 V704.000 H209.000 A11.000,11.000 0 0 1 198.000,693.000 V682.000 Z"/><rect x="220.000" y="682.000" width="22" height="22"/><rect x="242.000" y="682.000" width="22" height="22"/><rect x="264.000" y="682.000" width="22" height="22"/><rect x="286.000" y="682.000" width="22" height="22"/><path d="M308.000,682.000 H319.000 A11.000,11.000 0 0 1 330.000,693.000 V693.000 A11.000,11.000 0 0 1 319.000,704.000 H308.000 V682.000 Z"/><path d="M352.000,682.000 H374.000 V693.000 A11.000,11.000 0 0 1 363.000,704.000 H363.000 A11.000,11.000 0 0 1 352.000,693.000 V682.000 Z"/><path d="M396.000,682.000 H418.000 V704.000 H407.000 A11.000,11.000 0 0 1 396.000,693.000 V682.000 Z"/><path d="M418.000,682.000 H429.000 A11.000,11.000 0 0 1 440.000,693.000 V704.000 H418.000 V682.000 Z"/><path d="M495.000,682.000 H506.000 V704.000 H484.000 V693.000 A11.000,11.000 0 0 1 495.000,682.000 Z"/><rect x="506.000" y="682.000" width="22" height="22"/><rect x="528.000" y="682.000" width="22" height="22"/><path d="M649.000,682.000 H649.000 A11.000,11.000 0 0 1 660.000,693.000 V704.000 H638.000 V693.000 A11.000,11.000 0 0 1 649.000,682.000 Z"/><rect x="682.000" y="682.000" width="22" height="22"/><path d="M704.000,682.000 H715.000 A11.000,11.000 0 0 1 726.000,693.000 V693.000 A11.000,11.000 0 0 1 715.000,704.000 H704.000 V682.000 Z"/><path d="M803.000,682.000 H803.000 A11.000,11.000 0 0 1 814.000,693.000 V704.000 H792.000 V693.000 A11.000,11.000 0 0 1 803.000,682.000 Z"/><path d="M847.000,682.000 H858.000 V704.000 H847.000 A11.000,11.000 0 0 1 836.000,693.000 V693.000 A11.000,11.000 0 0 1 847.000,682.000 Z"/><rect x="858.000" y="682.000" width="22" height="22"/><rect x="880.000" y="682.000" width="22" height="22"/><circle cx="935.000" cy="693.000" r="11"/><rect x="44.000" y="704.000" width="22" height="22"/><path d="M110.000,704.000 H132.000 V726.000 H121.000 A11.000,11.000 0 0 1 110.000,715.000 V704.000 Z"/><path d="M132.000,704.000 H143.000 A11.000,11.000 0 0 1 154.000,715.000 V715.000 A11.000,11.000 0 0 1 143.000,726.000 H132.000 V704.000 Z"/><circle cx="187.000" cy="715.000" r="11"/><rect x="220.000" y="704.000" width="22" height="22"/><rect x="242.000" y="704.000" width="22" height="22"/><rect x="264.000" y="704.000" width="22" height="22"/><path d="M418.000,704.000 H440.000 V715.000 A11.000,11.000 0 0 1 429.000,726.000 H429.000 A11.000,11.000 0 0 1 418.000,715.000 V704.000 Z"/><path d="M473.000,704.000 H484.000 V726.000 H473.000 A11.000,11.000 0 0 1 462.000,715.000 V715.000 A11.000,11.000 0 0 1 473.000,704.000 Z"/><rect x="484.000" y="704.000" width="22" height="22"/><rect x="506.000" y="704.000" width="22" height="22"/><rect x="528.000" y="704.000" width="22" height="22"/><rect x="550.000" y="704.000" width="22" height="22"/><path d="M572.000,704.000 H583.000 A11.000,11.000 0 0 1 594.000,715.000 V715.000 A11.000,11.000 0 0 1 583.000,726.000 H572.000 V704.000 Z"/><rect x="638.000" y="704.000" width="22" height="22"/><rect x="660.000" y="704.000" width="22" height="22"/><path d="M682.000,704.000 H704.000 V715.000 A11.000,11.000 0 0 1 693.000,726.000 H682.000 V704.000 Z"/><path d="M781.000,704.000 H792.000 V726.000 H770.000 V715.000 A11.000,11.000 0 0 1 781.000,704.000 Z"/><rect x="792.000" y="704.000" width="22" height="22"/><path d="M814.000,704.000 H825.000 A11.000,11.000 0 0 1 836.000,715.000 V715.000 A11.000,11.000 0 0 1 825.000,726.000 H814.000 V704.000 Z"/><rect x="858.000" y="704.000" width="22" height="22"/><path d="M880.000,704.000 H902.000 V715.000 A11.000,11.000 0 0 1 891.000,726.000 H880.000 V704.000 Z"/><rect x="44.000" y="726.000" width="22" height="22"/><path d="M209.000,726.000 H220.000 V748.000 H209.000 A11.000,11.000 0 0 1 198.000,737.000 V737.000 A11.000,11.000 0 0 1 209.000,726.000 Z"/><rect x="220.000" y="726.000" width="22" height="22"/><path d="M264.000,726.000 H286.000 V737.000 A11.000,11.000 0 0 1 275.000,748.000 H275.000 A11.000,11.000 0 0 1 264.000,737.000 V726.000 Z"/><path d="M319.000,726.000 H330.000 V748.000 H308.000 V737.000 A11.000,11.000 0 0 1 319.000,726.000 Z"/><rect x="330.000" y="726.000" width="22" height="22"/><rect x="352.000" y="726.000" width="22" height="22"/><rect x="374.000" y="726.000" width="22" height="22"/><path d="M396.000,726.000 H407.000 A11.000,11.000 0 0 1 418.000,737.000 V748.000 H396.000 V726.000 Z"/><path d="M451.000,726.000 H451.000 A11.000,11.000 0 0 1 462.000,737.000 V748.000 H440.000 V737.000 A11.000,11.000 0 0 1 451.000,726.000 Z"/><rect x="550.000" y="726.000" width="22" height="22"/><path d="M627.000,726.000 H638.000 V748.000 H616.000 V737.000 A11.000,11.000 0 0 1 627.000,726.000 Z"/><rect x="638.000" y="726.000" width="22" height="22"/><path d="M759.000,726.000 H770.000 V748.000 H748.000 V737.000 A11.000,11.000 0 0 1 759.000,726.000 Z"/><rect x="770.000" y="726.000" width="22" height="22"/><rect x="792.000" y="726.000" width="22" height="22"/><path d="M847.000,726.000 H858.000 V748.000 H836.000 V737.000 A11.000,11.000 0 0 1 847.000,726.000 Z"/><path d="M858.000,726.000 H880.000 V737.000 A11.000,11.000 0 0 1 869.000,748.000 H858.000 V726.000 Z"/><path d="M935.000,726.000 H935.000 A11.000,11.000 0 0 1 946.000,737.000 V748.000 H924.000 V737.000 A11.000,11.000 0 0 1 935.000,726.000 Z"/><path d="M44.000,748.000 H66.000 V759.000 A11.000,11.000 0 0 1 55.000,770.000 H55.000 A11.000,11.000 0 0 1 44.000,759.000 V748.000 Z"/><path d="M143.000,748.000 H154.000 V770.000 H143.000 A11.000,11.000 0 0 1 132.000,759.000 V759.000 A11.000,11.000 0 0 1 143.000,748.000 Z"/><rect x="154.000" y="748.000" width="22" height="22"/><path d="M176.000,748.000 H187.000 A11.000,11.000 0 0 1 198.000,759.000 V759.000 A11.000,11.000 0 0 1 187.000,770.000 H176.000 V748.000 Z"/><rect x="220.000" y="748.000" width="22" height="22"/><path d="M297.000,748.000 H308.000 V770.000 H286.000 V759.000 A11.000,11.000 0 0 1 297.000,748.000 Z"/><rect x="308.000" y="748.000" width="22" height="22"/><path d="M374.000,748.000 H396.000 V770.000 H385.000 A11.000,11.000 0 0 1 374.000,759.000 V748.000 Z"/><rect x="396.000" y="748.000" width="22" height="22"/><rect x="418.000" y="748.000" width="22" height="22"/><path d="M440.000,748.000 H462.000 V759.000 A11.000,11.000 0 0 1 451.000,770.000 H440.000 V748.000 Z"/><circle cx="495.000" cy="759.000" r="11"/><path d="M539.000,748.000 H550.000 V770.000 H528.000 V759.000 A11.000,11.000 0 0 1 539.000,748.000 Z"/><rect x="550.000" y="748.000" width="22" height="22"/><rect x="572.000" y="748.000" width="22" height="22"/><rect x="594.000" y="748.000" width="22" height="22"/><rect x="616.000" y="748.000" width="22" height="22"/><path d="M638.000,748.000 H660.000 V759.000 A11.000,11.000 0 0 1 649.000,770.000 H638.000 V748.000 Z"/><path d="M693.000,748.000 H693.000 A11.000,11.000 0 0 1 704.000,759.000 V770.000 H682.000 V759.000 A11.000,11.000 0 0 1 693.000,748.000 Z"/><rect x="748.000" y="748.000" width="22" height="22"/><rect x="770.000" y="748.000" width="22" height="22"/><rect x="792.000" y="748.000" width="22" height="22"/><rect x="814.000" y="748.000" width="22" height="22"/><rect x="836.000" y="748.000" width="22" height="22"/><circle cx="891.000" cy="759.000" r="11"/><rect x="924.000" y="748.000" width="22" height="22"/><rect x="220.000" y="770.000" width="22" height="22"/><path d="M275.000,770.000 H286.000 V792.000 H275.000 A11.000,11.000 0 0 1 264.000,781.000 V781.000 A11.000,11.000 0 0 1 275.000,770.000 Z"/><rect x="286.000" y="770.000" width="22" height="22"/><path d="M308.000,770.000 H330.000 V781.000 A11.000,11.000 0 0 1 319.000,792.000 H308.000 V770.000 Z"/><circle cx="363.000" cy="781.000" r="11"/><circle cx="473.000" cy="781.000" r="11"/><path d="M528.000,770.000 H550.000 V792.000 H539.000 A11.000,11.000 0 0 1 528.000,781.000 V770.000 Z"/><path d="M550.000,770.000 H572.000 V781.000 A11.000,11.000 0 0 1 561.000,792.000 H550.000 V770.000 Z"/><path d="M616.000,770.000 H638.000 V781.000 A11.000,11.000 0 0 1 627.000,792.000 H627.000 A11.000,11.000 0 0 1 616.000,781.000 V770.000 Z"/><path d="M671.000,770.000 H682.000 V792.000 H671.000 A11.000,11.000 0 0 1 660.000,781.000 V781.000 A11.000,11.000 0 0 1 671.000,770.000 Z"/><rect x="682.000" y="770.000" width="22" height="22"/><rect x="748.000" y="770.000" width="22" height="22"/><rect x="836.000" y="770.000" width="22" height="22"/><path d="M913.000,770.000 H924.000 V792.000 H902.000 V781.000 A11.000,11.000 0 0 1 913.000,770.000 Z"/><path d="M924.000,770.000 H946.000 V781.000 A11.000,11.000 0 0 1 935.000,792.000 H924.000 V770.000 Z"/><rect x="220.000" y="792.000" width="22" height="22"/><path d="M242.000,792.000 H253.000 A11.000,11.000 0 0 1 264.000,803.000 V814.000 H242.000 V792.000 Z"/><circle cx="341.000" cy="803.000" r="11"/><circle cx="429.000" cy="803.000" r="11"/><circle cx="495.000" cy="803.000" r="11"/><circle cx="649.000" cy="803.000" r="11"/><rect x="682.000" y="792.000" width="22" height="22"/><rect x="748.000" y="792.000" width="22" height="22"/><circle cx="803.000" cy="803.000" r="11"/><rect x="836.000" y="792.000" width="22" height="22"/><path d="M891.000,792.000 H902.000 V814.000 H891.000 A11.000,11.000 0 0 1 880.000,803.000 V803.000 A11.000,11.000 0 0 1 891.000,792.000 Z"/><path d="M902.000,792.000 H924.000 V803.000 A11.000,11.000 0 0 1 913.000,814.000 H902.000 V792.000 Z"/><rect x="220.000" y="814.000" width="22" height="22"/><rect x="242.000" y="814.000" width="22" height="22"/><path d="M297.000,814.000 H308.000 V836.000 H286.000 V825.000 A11.000,11.000 0 0 1 297.000,814.000 Z"/><path d="M308.000,814.000 H319.000 A11.000,11.000 0 0 1 330.000,825.000 V836.000 H308.000 V814.000 Z"/><circle cx="363.000" cy="825.000" r="11"/><path d="M451.000,814.000 H462.000 V836.000 H451.000 A11.000,11.000 0 0 1 440.000,825.000 V825.000 A11.000,11.000 0 0 1 451.000,814.000 Z"/><path d="M462.000,814.000 H473.000 A11.000,11.000 0 0 1 484.000,825.000 V825.000 A11.000,11.000 0 0 1 473.000,836.000 H462.000 V814.000 Z"/><path d="M517.000,814.000 H528.000 V836.000 H506.000 V825.000 A11.000,11.000 0 0 1 517.000,814.000 Z"/><rect x="528.000" y="814.000" width="22" height="22"/><rect x="550.000" y="814.000" width="22" height="22"/><path d="M572.000,814.000 H583.000 A11.000,11.000 0 0 1 594.000,825.000 V836.000 H572.000 V814.000 Z"/><circle cx="627.000" cy="825.000" r="11"/><path d="M682.000,814.000 H704.000 V836.000 H693.000 A11.000,11.000 0 0 1 682.000,825.000 V814.000 Z"/><rect x="704.000" y="814.000" width="22" height="22"/><rect x="726.000" y="814.000" width="22" height="22"/><rect x="748.000" y="814.000" width="22" height="22"/><rect x="836.000" y="814.000" width="22" height="22"/><path d="M858.000,814.000 H869.000 A11.000,11.000 0 0 1 880.000,825.000 V836.000 H858.000 V814.000 Z"/><rect x="220.000" y="836.000" width="22" height="22"/><path d="M242.000,836.000 H264.000 V847.000 A11.000,11.000 0 0 1 253.000,858.000 H242.000 V836.000 Z"/><rect x="286.000" y="836.000" width="22" height="22"/><rect x="308.000" y="836.000" width="22" height="22"/><path d="M330.000,836.000 H341.000 A11.000,11.000 0 0 1 352.000,847.000 V858.000 H330.000 V836.000 Z"/><path d="M407.000,836.000 H418.000 V858.000 H396.000 V847.000 A11.000,11.000 0 0 1 407.000,836.000 Z"/><path d="M418.000,836.000 H429.000 A11.000,11.000 0 0 1 440.000,847.000 V847.000 A11.000,11.000 0 0 1 429.000,858.000 H418.000 V836.000 Z"/><rect x="506.000" y="836.000" width="22" height="22"/><rect x="572.000" y="836.000" width="22" height="22"/><circle cx="649.000" cy="847.000" r="11"/><path d="M748.000,836.000 H770.000 V858.000 H759.000 A11.000,11.000 0 0 1 748.000,847.000 V836.000 Z"/><rect x="770.000" y="836.000" width="22" height="22"/><rect x="792.000" y="836.000" width="22" height="22"/><rect x="814.000" y="836.000" width="22" height="22"/><rect x="836.000" y="836.000" width="22" height="22"/><path d="M858.000,836.000 H880.000 V847.000 A11.000,11.000 0 0 1 869.000,858.000 H858.000 V836.000 Z"/><path d="M935.000,836.000 H935.000 A11.000,11.000 0 0 1 946.000,847.000 V858.000 H924.000 V847.000 A11.000,11.000 0 0 1 935.000,836.000 Z"/><rect x="220.000" y="858.000" width="22" height="22"/><path d="M286.000,858.000 H308.000 V869.000 A11.000,11.000 0 0 1 297.000,880.000 H297.000 A11.000,11.000 0 0 1 286.000,869.000 V858.000 Z"/><path d="M330.000,858.000 H352.000 V869.000 A11.000,11.000 0 0 1 341.000,880.000 H341.000 A11.000,11.000 0 0 1 330.000,869.000 V858.000 Z"/><path d="M385.000,858.000 H396.000 V880.000 H374.000 V869.000 A11.000,11.000 0 0 1 385.000,858.000 Z"/><path d="M396.000,858.000 H418.000 V869.000 A11.000,11.000 0 0 1 407.000,880.000 H396.000 V858.000 Z"/><path d="M473.000,858.000 H484.000 V880.000 H473.000 A11.000,11.000 0 0 1 462.000,869.000 V869.000 A11.000,11.000 0 0 1 473.000,858.000 Z"/><rect x="484.000" y="858.000" width="22" height="22"/><rect x="506.000" y="858.000" width="22" height="22"/><path d="M561.000,858.000 H572.000 V880.000 H561.000 A11.000,11.000 0 0 1 550.000,869.000 V869.000 A11.000,11.000 0 0 1 561.000,858.000 Z"/><rect x="572.000" y="858.000" width="22" height="22"/><circle cx="627.000" cy="869.000" r="11"/><circle cx="671.000" cy="869.000" r="11"/><path d="M715.000,858.000 H726.000 V880.000 H715.000 A11.000,11.000 0 0 1 704.000,869.000 V869.000 A11.000,11.000 0 0 1 715.000,858.000 Z"/><path d="M726.000,858.000 H737.000 A11.000,11.000 0 0 1 748.000,869.000 V880.000 H726.000 V858.000 Z"/><rect x="770.000" y="858.000" width="22" height="22"/><rect x="814.000" y="858.000" width="22" height="22"/><path d="M924.000,858.000 H946.000 V869.000 A11.000,11.000 0 0 1 935.000,880.000 H935.000 A11.000,11.000 0 0 1 924.000,869.000 V858.000 Z"/><rect x="220.000" y="880.000" width="22" height="22"/><path d="M374.000,880.000 H396.000 V891.000 A11.000,11.000 0 0 1 385.000,902.000 H385.000 A11.000,11.000 0 0 1 374.000,891.000 V880.000 Z"/><path d="M429.000,880.000 H440.000 V902.000 H429.000 A11.000,11.000 0 0 1 418.000,891.000 V891.000 A11.000,11.000 0 0 1 429.000,880.000 Z"/><path d="M440.000,880.000 H451.000 A11.000,11.000 0 0 1 462.000,891.000 V891.000 A11.000,11.000 0 0 1 451.000,902.000 H440.000 V880.000 Z"/><path d="M484.000,880.000 H506.000 V902.000 H495.000 A11.000,11.000 0 0 1 484.000,891.000 V880.000 Z"/><path d="M506.000,880.000 H528.000 V891.000 A11.000,11.000 0 0 1 517.000,902.000 H506.000 V880.000 Z"/><path d="M572.000,880.000 H594.000 V902.000 H583.000 A11.000,11.000 0 0 1 572.000,891.000 V880.000 Z"/><path d="M594.000,880.000 H605.000 A11.000,11.000 0 0 1 616.000,891.000 V891.000 A11.000,11.000 0 0 1 605.000,902.000 H594.000 V880.000 Z"/><path d="M649.000,880.000 H649.000 A11.000,11.000 0 0 1 660.000,891.000 V902.000 H638.000 V891.000 A11.000,11.000 0 0 1 649.000,880.000 Z"/><rect x="726.000" y="880.000" width="22" height="22"/><rect x="770.000" y="880.000" width="22" height="22"/><rect x="792.000" y="880.000" width="22" height="22"/><rect x="814.000" y="880.000" width="22" height="22"/><rect x="836.000" y="880.000" width="22" height="22"/><path d="M858.000,880.000 H869.000 A11.000,11.000 0 0 1 880.000,891.000 V902.000 H858.000 V880.000 Z"/><path d="M913.000,880.000 H913.000 A11.000,11.000 0 0 1 924.000,891.000 V902.000 H902.000 V891.000 A11.000,11.000 0 0 1 913.000,880.000 Z"/><path d="M220.000,902.000 H242.000 V913.000 A11.000,11.000 0 0 1 231.000,924.000 H231.000 A11.000,11.000 0 0 1 220.000,913.000 V902.000 Z"/><path d="M275.000,902.000 H286.000 V924.000 H275.000 A11.000,11.000 0 0 1 264.000,913.000 V913.000 A11.000,11.000 0 0 1 275.000,902.000 Z"/><rect x="286.000" y="902.000" width="22" height="22"/><rect x="308.000" y="902.000" width="22" height="22"/><rect x="330.000" y="902.000" width="22" height="22"/><path d="M352.000,902.000 H363.000 A11.000,11.000 0 0 1 374.000,913.000 V913.000 A11.000,11.000 0 0 1 363.000,924.000 H352.000 V902.000 Z"/><circle cx="473.000" cy="913.000" r="11"/><path d="M561.000,902.000 H561.000 A11.000,11.000 0 0 1 572.000,913.000 V924.000 H550.000 V913.000 A11.000,11.000 0 0 1 561.000,902.000 Z"/><path d="M627.000,902.000 H638.000 V924.000 H616.000 V913.000 A11.000,11.000 0 0 1 627.000,902.000 Z"/><rect x="638.000" y="902.000" width="22" height="22"/><path d="M660.000,902.000 H671.000 A11.000,11.000 0 0 1 682.000,913.000 V913.000 A11.000,11.000 0 0 1 671.000,924.000 H660.000 V902.000 Z"/><path d="M715.000,902.000 H726.000 V924.000 H715.000 A11.000,11.000 0 0 1 704.000,913.000 V913.000 A11.000,11.000 0 0 1 715.000,902.000 Z"/><rect x="726.000" y="902.000" width="22" height="22"/><rect x="748.000" y="902.000" width="22" height="22"/><rect x="770.000" y="902.000" width="22" height="22"/><path d="M792.000,902.000 H814.000 V913.000 A11.000,11.000 0 0 1 803.000,924.000 H792.000 V902.000 Z"/><rect x="836.000" y="902.000" width="22" height="22"/><rect x="858.000" y="902.000" width="22" height="22"/><path d="M902.000,902.000 H924.000 V913.000 A11.000,11.000 0 0 1 913.000,924.000 H913.000 A11.000,11.000 0 0 1 902.000,913.000 V902.000 Z"/><circle cx="253.000" cy="935.000" r="11"/><path d="M308.000,924.000 H330.000 V935.000 A11.000,11.000 0 0 1 319.000,946.000 H319.000 A11.000,11.000 0 0 1 308.000,935.000 V924.000 Z"/><circle cx="451.000" cy="935.000" r="11"/><path d="M517.000,924.000 H528.000 V946.000 H517.000 A11.000,11.000 0 0 1 506.000,935.000 V935.000 A11.000,11.000 0 0 1 517.000,924.000 Z"/><rect x="528.000" y="924.000" width="22" height="22"/><rect x="550.000" y="924.000" width="22" height="22"/><rect x="572.000" y="924.000" width="22" height="22"/><rect x="594.000" y="924.000" width="22" height="22"/><rect x="616.000" y="924.000" width="22" height="22"/><path d="M638.000,924.000 H660.000 V935.000 A11.000,11.000 0 0 1 649.000,946.000 H638.000 V924.000 Z"/><circle cx="693.000" cy="935.000" r="11"/><path d="M825.000,924.000 H836.000 V946.000 H825.000 A11.000,11.000 0 0 1 814.000,935.000 V935.000 A11.000,11.000 0 0 1 825.000,924.000 Z"/><rect x="836.000" y="924.000" width="22" height="22"/><rect x="858.000" y="924.000" width="22" height="22"/><path d="M880.000,924.000 H891.000 A11.000,11.000 0 0 1 902.000,935.000 V935.000 A11.000,11.000 0 0 1 891.000,946.000 H880.000 V924.000 Z"/><g transform="translate(44,44) scale(11)"><path fill-rule="evenodd" d="M4.5,14h5.1C12,14,14,12,14,9.6V4.5C14,2,12,0,9.5,0H4.4C2,0,0,2,0,4.4v5.1C0,12,2,14,4.5,14z M12,4.8v4.4c0,1.5-1.3,2.8-2.8,2.8H4.8C3.2,12,2,10.8,2,9.2V4.8C2,3.3,3.3,2,4.8,2h4.4C10.8,2,12,3.2,12,4.8z"/></g><g transform="translate(88,88) scale(11)"><path d="M6,1.7v2.7C6,5.2,5.2,6,4.3,6H1.7C0.7,6,0,5.3,0,4.3V1.7C0,0.8,0.8,0,1.7,0h2.7C5.3,0,6,0.7,6,1.7z"/></g><g transform="translate(792,44) scale(11)"><path fill-rule="evenodd" d="M4.5,14h5.1C12,14,14,12,14,9.6V4.5C14,2,12,0,9.5,0H4.4C2,0,0,2,0,4.4v5.1C0,12,2,14,4.5,14z M12,4.8v4.4c0,1.5-1.3,2.8-2.8,2.8H4.8C3.2,12,2,10.8,2,9.2V4.8C2,3.3,3.3,2,4.8,2h4.4C10.8,2,12,3.2,12,4.8z"/></g><g transform="translate(836,88) scale(11)"><path d="M6,1.7v2.7C6,5.2,5.2,6,4.3,6H1.7C0.7,6,0,5.3,0,4.3V1.7C0,0.8,0.8,0,1.7,0h2.7C5.3,0,6,0.7,6,1.7z"/></g><g transform="translate(44,792) scale(11)"><path fill-rule="evenodd" d="M4.5,14h5.1C12,14,14,12,14,9.6V4.5C14,2,12,0,9.5,0H4.4C2,0,0,2,0,4.4v5.1C0,12,2,14,4.5,14z M12,4.8v4.4c0,1.5-1.3,2.8-2.8,2.8H4.8C3.2,12,2,10.8,2,9.2V4.8C2,3.3,3.3,2,4.8,2h4.4C10.8,2,12,3.2,12,4.8z"/></g><g transform="translate(88,836) scale(11)"><path d="M6,1.7v2.7C6,5.2,5.2,6,4.3,6H1.7C0.7,6,0,5.3,0,4.3V1.7C0,0.8,0.8,0,1.7,0h2.7C5.3,0,6,0.7,6,1.7z"/></g></g></g></svg>
